<svg width="48" height="48" viewBox="0 0 48 48" fill="none" xmlns="http://www.w3.org/2000/svg">
<path fill-rule="evenodd" clip-rule="evenodd" d="M24 7.07692C14.6536 7.07692 7.07692 14.6536 7.07692 24C7.07692 26.8 7.75572 29.4369 8.9564 31.7596C9.06929 31.978 9.12821 32.2202 9.12821 32.4661V38.8718H15.5339C15.7798 38.8718 16.022 38.9307 16.2404 39.0436C18.5631 40.2443 21.2 40.9231 24 40.9231C33.3464 40.9231 40.9231 33.3464 40.9231 24C40.9231 14.6536 33.3464 7.07692 24 7.07692ZM4 24C4 12.9543 12.9543 4 24 4C35.0457 4 44 12.9543 44 24C44 35.0457 35.0457 44 24 44C20.8324 44 17.833 43.2625 15.1678 41.9487H7.58974C6.74007 41.9487 6.05128 41.2599 6.05128 40.4103V32.8323C4.73748 30.167 4 27.1676 4 24Z" fill="#EC4899"/>
<path d="M19.8974 24C19.8974 25.1329 18.979 26.0513 17.8462 26.0513C16.7133 26.0513 15.7949 25.1329 15.7949 24C15.7949 22.8671 16.7133 21.9487 17.8462 21.9487C18.979 21.9487 19.8974 22.8671 19.8974 24Z" fill="#EC4899"/>
<path d="M26.0513 24C26.0513 25.1329 25.1329 26.0513 24 26.0513C22.8671 26.0513 21.9487 25.1329 21.9487 24C21.9487 22.8671 22.8671 21.9487 24 21.9487C25.1329 21.9487 26.0513 22.8671 26.0513 24Z" fill="#EC4899"/>
<path d="M32.2051 24C32.2051 25.1329 31.2867 26.0513 30.1538 26.0513C29.021 26.0513 28.1026 25.1329 28.1026 24C28.1026 22.8671 29.021 21.9487 30.1538 21.9487C31.2867 21.9487 32.2051 22.8671 32.2051 24Z" fill="#EC4899"/>
</svg>
