<svg width="48" height="48" viewBox="0 0 48 48" fill="none" xmlns="http://www.w3.org/2000/svg">
<path fill-rule="evenodd" clip-rule="evenodd" d="M26.8444 20.2574H36.8L29.3333 30.3157L21.1556 40.8419V27.7427H11.2L19.4286 17.4504L26.8444 7.15808V20.2574ZM16.8669 15.5562L24.2365 5.32815C25.0434 4.20835 26.4913 3.73192 27.8177 4.14983C29.1441 4.56774 30.0444 5.78407 30.0444 7.15808V17.0995H36.8C38.0056 17.0995 39.1088 17.7682 39.6541 18.8292C40.1993 19.8903 40.0939 21.1638 39.3814 22.1235L31.9148 32.1819C31.901 32.2004 31.887 32.2188 31.8729 32.2371L23.6951 42.7633C22.8609 43.8371 21.4261 44.2671 20.1276 43.8324C18.8291 43.3978 17.9556 42.195 17.9556 40.8419V30.9005H11.2C9.97384 30.9005 8.85547 30.2091 8.32056 29.1202C7.78566 28.0314 7.92828 26.7367 8.68778 25.7867L16.8669 15.5562Z" fill="#EC4899"/>
</svg>
