<svg width="50" height="50" viewBox="0 0 50 50" fill="none" xmlns="http://www.w3.org/2000/svg">
<path fill-rule="evenodd" clip-rule="evenodd" d="M32.7608 19.4617C33.4047 20.0907 33.4047 21.1104 32.7608 21.7394L23.9675 30.3293C23.3237 30.9583 22.2797 30.9583 21.6359 30.3293L17.2392 26.0344C16.5953 25.4054 16.5953 24.3856 17.2392 23.7566C17.8831 23.1276 18.927 23.1276 19.5709 23.7566L22.8017 26.9127L30.4292 19.4617C31.073 18.8327 32.117 18.8327 32.7608 19.4617Z" fill="#EC4899"/>
<path fill-rule="evenodd" clip-rule="evenodd" d="M25.8275 7.5125C25.289 7.34636 24.7111 7.34636 24.1725 7.5125L9.38527 12.0741C8.07112 12.4795 7.26762 13.7731 7.5064 15.099L9.82317 27.9634C10.6732 32.6832 13.1401 36.9146 17.115 39.3461C18.5753 40.2393 20.0969 41.073 21.5146 41.6785C22.9667 42.2987 24.1569 42.6121 25 42.6121C25.8431 42.6121 27.0333 42.2987 28.4855 41.6785C29.9031 41.073 31.4248 40.2393 32.885 39.3461C36.8599 36.9146 39.3269 32.6833 40.1769 27.9634L42.4936 15.099C42.7324 13.7731 41.9289 12.4795 40.6148 12.0741L25.8275 7.5125ZM23.1796 4.44081C24.3644 4.07531 25.6357 4.07531 26.8205 4.44081L41.6078 9.00245C44.4989 9.89432 46.2666 12.7402 45.7413 15.6571L43.4245 28.5215C42.452 33.9216 39.5753 39.0543 34.6351 42.0762C33.0992 43.0156 31.4269 43.9378 29.8065 44.6299C28.2206 45.3073 26.5289 45.8333 25 45.8333C23.4712 45.8333 21.7794 45.3073 20.1935 44.6299C18.5731 43.9378 16.9008 43.0156 15.365 42.0762C10.4248 39.0543 7.54808 33.9216 6.57556 28.5215L4.25879 15.6571C3.73347 12.7402 5.50118 9.89431 8.39229 9.00245L23.1796 4.44081Z" fill="#EC4899"/>
</svg>
